<svg width="24" height="25" viewBox="0 0 24 25" fill="none" xmlns="http://www.w3.org/2000/svg">
<path d="M12 0.714355C18.6274 0.714355 24 6.08694 24 12.7143C24 18.8496 19.3955 23.9088 13.4538 24.6265V16.3814L16.7001 16.3814L17.3734 12.7143H13.4538V11.4174C13.4538 10.4485 13.6439 9.77775 14.0799 9.34919C14.5159 8.92062 15.1979 8.73429 16.1817 8.73429C16.4307 8.73429 16.6599 8.73676 16.8633 8.74172C17.1591 8.74892 17.4002 8.76136 17.568 8.77902V5.45483C17.501 5.4362 17.4218 5.41756 17.3331 5.39922C17.1321 5.35766 16.8822 5.3176 16.6136 5.28242C16.0523 5.20889 15.4093 5.15666 14.9594 5.15666C13.1424 5.15666 11.7692 5.54538 10.8107 6.35054C9.65388 7.32226 9.10108 8.90057 9.10108 11.1342V12.7143H6.62659V16.3814H9.10108V24.361C3.87432 23.0642 0 18.3421 0 12.7143C0 6.08694 5.37259 0.714355 12 0.714355Z" fill="#E3E4E5"/>
</svg>
