<svg width="24" height="25" viewBox="0 0 24 25" fill="none" xmlns="http://www.w3.org/2000/svg">
<path d="M18.3952 7.73648C17.6005 7.73803 16.9543 7.09456 16.9528 6.29984C16.9512 5.50512 17.5947 4.85893 18.3898 4.85737C19.1848 4.85582 19.831 5.49967 19.8326 6.29439C19.8338 7.08911 19.1903 7.73492 18.3952 7.73648Z" fill="#E3E4E5"/>
<path fill-rule="evenodd" clip-rule="evenodd" d="M12.0115 18.8754C8.60909 18.882 5.8451 16.1292 5.8385 12.726C5.83188 9.32358 8.58536 6.55917 11.9878 6.55256C15.3909 6.54595 18.1553 9.30025 18.1619 12.7023C18.1685 16.1055 15.4143 18.8688 12.0115 18.8754ZM11.992 8.71471C9.78365 8.7186 7.99594 10.5129 7.99983 12.7217C8.0041 14.9309 9.79882 16.7183 12.0072 16.714C14.2164 16.7097 16.0041 14.9158 15.9998 12.7066C15.9955 10.4974 14.2008 8.71044 11.992 8.71471Z" fill="#E3E4E5"/>
<path fill-rule="evenodd" clip-rule="evenodd" d="M4.1192 1.36083C4.88126 1.06223 5.75333 0.857718 7.03015 0.797454C8.31011 0.736028 8.71872 0.722026 11.9769 0.715808C15.2358 0.70959 15.6444 0.722024 16.9244 0.778789C18.2016 0.833998 19.0741 1.0354 19.8377 1.3309C20.6277 1.63533 21.298 2.04514 21.966 2.71038C22.6339 3.3764 23.0453 4.04438 23.3536 4.83326C23.6518 5.5961 23.8563 6.46741 23.917 7.74503C23.9776 9.02458 23.9924 9.43283 23.9986 12.6914C24.0048 15.9496 23.9916 16.3586 23.9356 17.6394C23.88 18.9158 23.679 19.7887 23.3835 20.5519C23.0783 21.3419 22.6693 22.0122 22.004 22.6802C21.3388 23.3486 20.6701 23.7595 19.8812 24.0683C19.1184 24.3661 18.2471 24.5706 16.9702 24.6316C15.6903 24.6923 15.2817 24.7067 12.0224 24.7129C8.76459 24.7191 8.35598 24.7067 7.07605 24.6503C5.79882 24.5943 4.92597 24.3933 4.16275 24.0982C3.37271 23.7926 2.70242 23.384 2.03446 22.7183C1.36611 22.0527 0.954386 21.3843 0.646458 20.5954C0.347858 19.833 0.144107 18.9613 0.0830727 17.6848C0.0220359 16.4045 0.00765506 15.9955 0.00143906 12.7373C-0.00480094 9.47871 0.00803667 9.07047 0.0640167 7.79051C0.1204 6.51291 0.320637 5.64042 0.61613 4.87641C0.921328 4.08675 1.33035 3.41684 1.99637 2.74848C2.6616 2.08052 3.33033 1.66837 4.1192 1.36083ZM4.94154 22.0822C5.36494 22.2451 6.00023 22.4395 7.17014 22.4905C8.43607 22.5453 8.81514 22.5574 12.0185 22.5511C15.223 22.5453 15.6021 22.5317 16.8676 22.4722C18.0363 22.4166 18.6716 22.2199 19.0939 22.055C19.6541 21.8361 20.0531 21.5745 20.4722 21.1549C20.8913 20.7339 21.1506 20.3338 21.3676 19.7735C21.5309 19.3497 21.7249 18.714 21.7758 17.5441C21.8314 16.2789 21.8431 15.8995 21.8368 12.6953C21.831 9.49193 21.8174 9.11246 21.7572 7.84689C21.7019 6.67775 21.5056 6.04244 21.3404 5.62059C21.1215 5.05954 20.8606 4.66141 20.4399 4.24189C20.0192 3.82236 19.6191 3.5638 19.0581 3.34685C18.6355 3.18317 17.9994 2.98954 16.8303 2.93861C15.5643 2.88301 15.1849 2.87173 11.9808 2.87796C8.77743 2.88417 8.39836 2.897 7.13281 2.95688C5.9633 3.01247 5.32877 3.20882 4.90575 3.37407C4.34587 3.59296 3.94696 3.85308 3.52746 4.27416C3.10871 4.69523 2.84938 5.09453 2.63244 5.65597C2.46993 6.07899 2.27434 6.71508 2.2242 7.88422C2.16898 9.15017 2.15733 9.52965 2.16355 12.733C2.16939 15.9372 2.18298 16.3166 2.24248 17.5814C2.29729 18.7513 2.49518 19.3859 2.65966 19.8093C2.87855 20.3688 3.13944 20.7677 3.55973 21.1872C3.98081 21.6052 4.38088 21.8653 4.94154 22.0822Z" fill="#E3E4E5"/>
</svg>
