<svg width="488" height="79" viewBox="0 0 488 79" fill="none" xmlns="http://www.w3.org/2000/svg">
<g clip-path="url(#clip0_144_1242)">
<path d="M258.463 70.0676L263.158 57.999H265.255L270.071 70.0676H267.887L266.774 67.1886H261.656L260.586 70.0676H258.463ZM262.157 65.5249H266.256L264.168 60.2662L262.157 65.5249Z" fill="white"/>
<path d="M255.266 70.0676L250.321 63.6973L254.714 57.999H257.096L252.677 63.6887L257.76 70.0676H255.266ZM247.784 70.0676V57.999H249.717V62.7921H251.961V64.568H249.717V70.0676H247.784Z" fill="white"/>
<path d="M242.693 70.0676V57.999H244.627V70.0676H242.693Z" fill="white"/>
<path d="M229.833 70.0676V57.999H231.766V62.7921H237.617V57.999H239.55V70.0676H237.617V64.568H231.766V70.0676H229.833Z" fill="white"/>
<path d="M224.743 70.0676V57.999H226.675V70.0676H224.743Z" fill="white"/>
<path d="M211.45 70.2748L210.725 68.499C211.111 68.3783 211.442 68.2318 211.718 68.0594C211.994 67.887 212.224 67.6541 212.408 67.361C212.598 67.0622 212.744 66.6743 212.848 66.1972C212.957 65.7145 213.035 65.1082 213.081 64.3783C213.127 63.6427 213.15 62.7461 213.15 61.6887V57.999H221.599V70.0676H219.666V59.7663H215.006V61.6197C215.006 62.8726 214.968 63.953 214.893 64.8611C214.819 65.7634 214.695 66.5277 214.522 67.1542C214.356 67.7748 214.134 68.2892 213.858 68.6973C213.588 69.0996 213.251 69.4241 212.848 69.6713C212.451 69.9185 211.986 70.1194 211.45 70.2748Z" fill="white"/>
<path d="M207.345 70.0676L202.4 63.6973L206.793 57.999H209.175L204.757 63.6887L209.84 70.0676H207.345ZM199.863 70.0676V57.999H201.796V62.7921H204.04V64.568H201.796V70.0676H199.863Z" fill="white"/>
<path d="M182.276 70.0676L186.97 57.999H189.068L193.883 70.0676H191.7L190.587 67.1886H185.469L184.399 70.0676H182.276ZM185.97 65.5249H190.068L187.98 60.2662L185.97 65.5249Z" fill="white"/>
<path d="M170.804 70.0676V57.999H172.738V62.7921H178.589V57.999H180.522V70.0676H178.589V64.568H172.738V70.0676H170.804Z" fill="white"/>
<path d="M165.722 70.0676V65.1455C165.21 65.2835 164.71 65.3927 164.22 65.4732C163.732 65.5536 163.205 65.5939 162.642 65.5939C161.709 65.5939 160.912 65.4444 160.251 65.1455C159.595 64.841 159.092 64.3668 158.74 63.7231C158.389 63.0737 158.214 62.2318 158.214 61.1973V57.999H160.147V60.9128C160.147 61.976 160.383 62.726 160.855 63.1628C161.332 63.5996 162.017 63.818 162.909 63.818C163.479 63.818 163.982 63.7893 164.419 63.7317C164.862 63.6743 165.297 63.5939 165.722 63.4904V57.999H167.656V70.0676H165.722Z" fill="white"/>
<path d="M145.925 70.0676V57.999H147.85V66.9128L153.891 57.999H155.755V70.0676H153.839V61.0938L147.772 70.0676H145.925Z" fill="white"/>
<path d="M140.026 70.0676V59.7663H135.297V61.6197C135.297 63.0852 135.228 64.3179 135.09 65.3179C134.952 66.3179 134.736 67.1369 134.443 67.7748C134.149 68.407 133.764 68.8984 133.286 69.2488C132.814 69.5995 132.239 69.855 131.56 70.0166L130.87 68.4559C131.387 68.3352 131.813 68.1513 132.147 67.9041C132.481 67.657 132.739 67.2892 132.924 66.8007C133.113 66.3065 133.246 65.6427 133.321 64.8094C133.401 63.9703 133.442 62.907 133.442 61.6197V57.999H141.96V70.0676H140.026ZM130.87 73.1368V68.4559L132.199 68.5249L132.915 68.2921H143.884V73.1368H142.063V70.0676H132.69V73.1368H130.87Z" fill="white"/>
<path d="M121.535 70.0676V57.999H129.346V59.7059H123.468V62.9645H128.543V64.5766H123.468V68.3438H129.397V70.0676H121.535Z" fill="white"/>
<path d="M105.759 70.0676V57.999H107.631L112.559 66.0076L111.808 66.0162L116.555 57.999H118.393V70.0676H116.503L116.529 60.568L116.9 60.6973L112.792 67.4645H111.377L107.191 60.6973L107.502 60.568L107.527 70.0676H105.759Z" fill="white"/>
<path d="M452.978 43.1575L466.607 7.66553H473.967L487.874 43.1575H480.438L477.418 35.1211H463.13L460.211 43.1575H452.978ZM464.754 29.5184H475.743L470.16 15.1188L464.754 29.5184Z" fill="white"/>
<path d="M427.01 43.1575V7.66553H439.725C443.193 7.66553 445.984 8.42607 448.099 9.9471C450.231 11.4513 451.297 13.6822 451.297 16.6399C451.297 17.7384 451.043 18.7779 450.536 19.7581C450.029 20.7384 449.369 21.6003 448.556 22.344C447.744 23.0707 446.882 23.6284 445.968 24.0172C447.896 24.6256 449.487 25.7157 450.739 27.2875C451.991 28.8593 452.617 30.7775 452.617 33.0422C452.617 35.0366 452.109 36.7943 451.095 38.3154C450.096 39.8364 448.666 41.0279 446.805 41.8899C444.944 42.735 442.745 43.1575 440.206 43.1575H427.01ZM433.608 38.1125H439.166C441.382 38.1125 443.04 37.6731 444.14 36.7943C445.24 35.8985 445.79 34.5633 445.79 32.7888C445.79 31.048 445.24 29.7127 444.14 28.7832C443.058 27.8537 441.408 27.3889 439.192 27.3889H433.608V38.1125ZM433.608 22.6228H438.76C439.995 22.6228 441.07 22.42 441.983 22.0144C442.897 21.6088 443.607 21.0257 444.115 20.2651C444.623 19.4877 444.876 18.5666 444.876 17.5018C444.876 15.947 444.335 14.7639 443.252 13.9526C442.186 13.1245 440.655 12.7104 438.659 12.7104H433.608V22.6228Z" fill="white"/>
<path d="M404.037 43.9173C401.347 43.9173 398.851 43.4526 396.55 42.523C394.266 41.5766 392.278 40.2667 390.586 38.5936C388.894 36.9204 387.583 34.9599 386.652 32.712C385.722 30.4642 385.256 28.0304 385.256 25.4108C385.256 22.7743 385.722 20.3321 386.652 18.0843C387.583 15.8364 388.894 13.8759 390.586 12.2027C392.278 10.5296 394.266 9.22819 396.55 8.29862C398.851 7.36905 401.347 6.9043 404.037 6.9043C406.71 6.9043 409.189 7.37754 411.472 8.32396C413.757 9.27045 415.745 10.5887 417.437 12.2788C419.129 13.9689 420.449 15.9378 421.396 18.1857C422.343 20.4166 422.817 22.825 422.817 25.4108C422.817 28.0304 422.343 30.4642 421.396 32.712C420.449 34.9599 419.129 36.9204 417.437 38.5936C415.745 40.2667 413.757 41.5766 411.472 42.523C409.189 43.4526 406.71 43.9173 404.037 43.9173ZM404.037 37.7063C405.712 37.7063 407.268 37.4189 408.706 36.8443C410.161 36.2528 411.422 35.4246 412.488 34.3598C413.571 33.2782 414.408 31.9853 415 30.4811C415.609 28.96 415.914 27.2699 415.914 25.4108C415.914 22.9264 415.39 20.7631 414.34 18.9209C413.292 17.0786 411.871 15.6505 410.077 14.6365C408.283 13.6224 406.27 13.1154 404.037 13.1154C402.345 13.1154 400.78 13.4027 399.342 13.9773C397.903 14.5519 396.643 15.3801 395.56 16.4618C394.494 17.5435 393.657 18.8363 393.047 20.3405C392.456 21.8447 392.159 23.5348 392.159 25.4108C392.159 27.8952 392.675 30.0586 393.707 31.9008C394.757 33.743 396.178 35.1711 397.971 36.1852C399.765 37.1992 401.786 37.7063 404.037 37.7063Z" fill="white"/>
<path d="M351.686 43.1575V7.66553H358.284V21.4567H374.425V7.66553H381.024V43.1575H374.425V27.4903H358.284V43.1575H351.686Z" fill="white"/>
<path d="M307.647 43.1575L318.053 28.3522C315.345 27.7438 313.231 26.5945 311.708 24.9045C310.202 23.2144 309.449 21.0511 309.449 18.4145C309.449 16.1667 309.974 14.24 311.023 12.6344C312.088 11.0288 313.586 9.80348 315.515 8.95842C317.461 8.09645 319.745 7.66553 322.368 7.66553H335.615V43.1575H329.016V29.2649H324.727L315.287 43.1575H307.647ZM322.52 23.8651H329.016V13.1921H322.799C320.701 13.1921 319.059 13.6316 317.875 14.5104C316.691 15.3724 316.099 16.6737 316.099 18.4145C316.099 20.1722 316.64 21.5242 317.723 22.4707C318.806 23.4002 320.404 23.8651 322.52 23.8651Z" fill="white"/>
<path d="M281.526 43.1575V7.66553H305.154V13.4456H288.125V22.0397H302.693V27.4396H288.125V37.3266H305.332V43.1575H281.526Z" fill="white"/>
<path d="M243.715 43.1575V7.66553H250.314V37.1238H265.948V7.66553H272.546V43.1575H243.715ZM271.988 52.1572V43.1575H268.688V37.1238H278.231V52.1572H271.988Z" fill="white"/>
<path d="M206.454 43.1575L220.083 7.66553H227.443L241.35 43.1575H233.914L230.894 35.1211H216.606L213.687 43.1575H206.454ZM218.23 29.5184H229.219L223.635 15.1188L218.23 29.5184Z" fill="white"/>
<path d="M174.736 43.1575V7.66553H181.334V21.4567H197.476V7.66553H204.074V43.1575H197.476V27.4903H181.334V43.1575H174.736Z" fill="white"/>
<path d="M137.474 43.1575L151.103 7.66553H158.463L172.37 43.1575H164.934L161.914 35.1211H147.626L144.707 43.1575H137.474ZM149.251 29.5184H160.24L154.656 15.1188L149.251 29.5184Z" fill="white"/>
<path d="M105.756 43.1575V7.66553H135.094V43.1575H128.496V13.6991H112.355V43.1575H105.756Z" fill="white"/>
<path d="M79.4894 25.8924V51.7848C70.0432 51.7848 61.2031 49.2666 53.5691 44.8526C45.7076 40.306 39.1398 33.7477 34.5906 25.8948C30.1694 18.2667 27.6507 9.4363 27.6507 0H53.5714C53.5714 14.2976 65.1765 25.8924 79.4922 25.8924H79.4894Z" fill="#CE0037"/>
<path d="M51.8434 78.713H25.9227C25.9227 64.4154 14.3176 52.8206 0.00205231 52.8206V26.9282C9.44863 26.9282 18.2887 29.4465 25.9227 33.8605C33.7842 38.4046 40.3521 44.9654 44.9012 52.8183C49.3224 60.4416 51.841 69.2744 51.841 78.711L51.8434 78.713Z" fill="#CE0037"/>
</g>
<defs>
<clipPath id="clip0_144_1242">
<rect width="488" height="79" fill="white"/>
</clipPath>
</defs>
</svg>
