<svg width="196" height="33" viewBox="0 0 196 33" fill="none" xmlns="http://www.w3.org/2000/svg">
<g clip-path="url(#clip0_144_548)">
<path d="M103.809 28.7376L105.695 23.8739H106.537L108.471 28.7376H107.594L107.147 27.5774H105.091L104.662 28.7376H103.809ZM105.293 26.9069H106.939L106.1 24.7876L105.293 26.9069Z" fill="#2D2926"/>
<path d="M102.525 28.7376L100.539 26.1703L102.303 23.8739H103.26L101.485 26.1669L103.527 28.7376H102.525ZM99.5197 28.7376V23.8739H100.296V25.8055H101.197V26.5212H100.296V28.7376H99.5197Z" fill="#2D2926"/>
<path d="M97.4753 28.7376V23.8739H98.2519V28.7376H97.4753Z" fill="#2D2926"/>
<path d="M92.3099 28.7376V23.8739H93.0864V25.8055H95.4365V23.8739H96.2127V28.7376H95.4365V26.5212H93.0864V28.7376H92.3099Z" fill="#2D2926"/>
<path d="M90.2655 28.7376V23.8739H91.0417V28.7376H90.2655Z" fill="#2D2926"/>
<path d="M84.9268 28.8211L84.6356 28.1054C84.7905 28.0568 84.9232 27.9978 85.0343 27.9283C85.1451 27.8588 85.2375 27.765 85.3114 27.6468C85.3877 27.5264 85.4466 27.3701 85.4882 27.1778C85.5321 26.9833 85.5634 26.7389 85.5818 26.4448C85.6004 26.1483 85.6095 25.787 85.6095 25.3608V23.8739H89.0029V28.7376H88.2266V24.5861H86.3549V25.333C86.3549 25.838 86.3397 26.2734 86.3097 26.6393C86.2797 27.003 86.23 27.311 86.1606 27.5635C86.0937 27.8136 86.0048 28.0209 85.8938 28.1854C85.7852 28.3475 85.65 28.4783 85.4882 28.5779C85.3288 28.6775 85.1417 28.7585 84.9268 28.8211Z" fill="#2D2926"/>
<path d="M83.2781 28.7376L81.292 26.1703L83.0562 23.8739H84.0129L82.2384 26.1669L84.28 28.7376H83.2781ZM80.2728 28.7376V23.8739H81.0493V25.8055H81.9505V26.5212H81.0493V28.7376H80.2728Z" fill="#2D2926"/>
<path d="M73.2091 28.7376L75.0947 23.8739H75.937L77.8712 28.7376H76.9942L76.5472 27.5774H74.4917L74.062 28.7376H73.2091ZM74.6927 26.9069H76.339L75.5003 24.7876L74.6927 26.9069Z" fill="#2D2926"/>
<path d="M68.6017 28.7376V23.8739H69.3782V25.8055H71.7282V23.8739H72.5048V28.7376H71.7282V26.5212H69.3782V28.7376H68.6017Z" fill="#2D2926"/>
<path d="M66.5606 28.7376V26.754C66.3548 26.8096 66.1538 26.8536 65.9573 26.886C65.761 26.9184 65.5495 26.9347 65.3232 26.9347C64.9487 26.9347 64.6286 26.8744 64.3629 26.754C64.0995 26.6312 63.8973 26.4402 63.7563 26.1807C63.6153 25.919 63.545 25.5797 63.545 25.1628V23.8739H64.3213V25.0482C64.3213 25.4767 64.4162 25.7789 64.6056 25.9549C64.7974 26.131 65.0722 26.219 65.4306 26.219C65.6594 26.219 65.8615 26.2074 66.0372 26.1842C66.2149 26.1611 66.3895 26.1286 66.5606 26.0869V23.8739H67.3371V28.7376H66.5606Z" fill="#2D2926"/>
<path d="M58.6093 28.7376V23.8739H59.3824V27.4662L61.8085 23.8739H62.5573V28.7376H61.7877V25.1211L59.3511 28.7376H58.6093Z" fill="#2D2926"/>
<path d="M56.24 28.7376V24.5861H54.3405V25.333C54.3405 25.9237 54.3128 26.4205 54.2572 26.8235C54.202 27.2265 54.1151 27.5565 53.9974 27.8136C53.8794 28.0684 53.7248 28.2664 53.5329 28.4076C53.3433 28.549 53.1123 28.6519 52.8397 28.717L52.5624 28.0881C52.7703 28.0394 52.9413 27.9653 53.0754 27.8657C53.2095 27.7661 53.3133 27.6179 53.3875 27.421C53.4635 27.2219 53.5168 26.9543 53.5468 26.6185C53.579 26.2804 53.5954 25.8519 53.5954 25.333V23.8739H57.0165V28.7376H56.24ZM52.5624 29.9745V28.0881L53.0962 28.1159L53.3839 28.0221H57.7894V29.9745H57.0579V28.7376H53.2936V29.9745H52.5624Z" fill="#2D2926"/>
<path d="M48.8135 28.7376V23.8739H51.9503V24.5618H49.5897V25.875H51.628V26.5247H49.5897V28.0429H51.9711V28.7376H48.8135Z" fill="#2D2926"/>
<path d="M42.4768 28.7376V23.8739H43.2289L45.208 27.1014L44.9065 27.1049L46.813 23.8739H47.5512V28.7376H46.7921L46.8027 24.9092L46.9515 24.9613L45.3016 27.6886H44.7333L43.052 24.9613L43.177 24.9092L43.1872 28.7376H42.4768Z" fill="#2D2926"/>
<path d="M181.934 17.8926L187.408 3.58911H190.364L195.949 17.8926H192.963L191.75 14.6538H186.011L184.839 17.8926H181.934ZM186.663 12.3959H191.077L188.835 6.59283L186.663 12.3959Z" fill="#2D2926"/>
<path d="M171.504 17.8926V3.58911H176.611C178.004 3.58911 179.125 3.89562 179.974 4.5086C180.831 5.11482 181.259 6.01388 181.259 7.20583C181.259 7.64855 181.157 8.06744 180.953 8.46249C180.749 8.85754 180.484 9.20492 180.158 9.5046C179.832 9.79747 179.485 10.0223 179.118 10.1789C179.893 10.4241 180.532 10.8634 181.035 11.4969C181.537 12.1303 181.789 12.9034 181.789 13.8161C181.789 14.6198 181.585 15.3282 181.177 15.9412C180.776 16.5541 180.202 17.0343 179.454 17.3817C178.707 17.7223 177.824 17.8926 176.804 17.8926H171.504ZM174.154 15.8594H176.386C177.276 15.8594 177.942 15.6823 178.384 15.3282C178.826 14.9672 179.047 14.4291 179.047 13.7139C179.047 13.0124 178.826 12.4743 178.384 12.0997C177.949 11.725 177.287 11.5377 176.397 11.5377H174.154V15.8594ZM174.154 9.61699H176.223C176.719 9.61699 177.151 9.53524 177.518 9.37179C177.885 9.20831 178.17 8.97332 178.374 8.66682C178.578 8.35352 178.68 7.98229 178.68 7.55319C178.68 6.92657 178.462 6.4498 178.027 6.12284C177.599 5.7891 176.984 5.62222 176.183 5.62222H174.154V9.61699Z" fill="#2D2926"/>
<path d="M162.277 18.199C161.197 18.199 160.194 18.0117 159.27 17.6371C158.353 17.2557 157.554 16.7278 156.875 16.0535C156.195 15.3792 155.668 14.5891 155.295 13.6832C154.921 12.7774 154.734 11.7965 154.734 10.7408C154.734 9.67828 154.921 8.69407 155.295 7.78819C155.668 6.88229 156.195 6.09219 156.875 5.41788C157.554 4.7436 158.353 4.21914 159.27 3.84451C160.194 3.46989 161.197 3.28259 162.277 3.28259C163.351 3.28259 164.346 3.47331 165.263 3.85472C166.181 4.23616 166.979 4.76742 167.659 5.44855C168.339 6.12967 168.869 6.92316 169.249 7.82904C169.63 8.72813 169.82 9.6987 169.82 10.7408C169.82 11.7965 169.63 12.7774 169.249 13.6832C168.869 14.5891 168.339 15.3792 167.659 16.0535C166.979 16.7278 166.181 17.2557 165.263 17.6371C164.346 18.0117 163.351 18.199 162.277 18.199ZM162.277 15.696C162.95 15.696 163.575 15.5802 164.152 15.3486C164.737 15.1102 165.243 14.7764 165.671 14.3473C166.106 13.9114 166.443 13.3904 166.68 12.7842C166.925 12.1712 167.047 11.49 167.047 10.7408C167.047 9.73958 166.837 8.86776 166.415 8.12533C165.994 7.38291 165.423 6.80738 164.703 6.3987C163.983 5.99004 163.174 5.78569 162.277 5.78569C161.598 5.78569 160.969 5.9015 160.391 6.13307C159.814 6.36464 159.307 6.69838 158.872 7.13431C158.444 7.57023 158.108 8.09127 157.863 8.69747C157.626 9.30366 157.506 9.98479 157.506 10.7408C157.506 11.7421 157.714 12.6139 158.128 13.3563C158.55 14.0987 159.121 14.6743 159.841 15.0829C160.561 15.4916 161.373 15.696 162.277 15.696Z" fill="#2D2926"/>
<path d="M141.251 17.8926V3.58911H143.901V9.14701H150.384V3.58911H153.034V17.8926H150.384V11.5786H143.901V17.8926H141.251Z" fill="#2D2926"/>
<path d="M123.563 17.8926L127.743 11.926C126.655 11.6808 125.806 11.2176 125.194 10.5365C124.589 9.85538 124.287 8.98356 124.287 7.92099C124.287 7.01512 124.498 6.23866 124.919 5.59159C125.347 4.94452 125.949 4.45072 126.723 4.11015C127.505 3.76277 128.422 3.58911 129.475 3.58911H134.796V17.8926H132.146V12.2938H130.423L126.631 17.8926H123.563ZM129.537 10.1176H132.146V5.81637H129.649C128.806 5.81637 128.147 5.99345 127.671 6.34762C127.195 6.695 126.958 7.21944 126.958 7.92099C126.958 8.62936 127.175 9.17425 127.61 9.55569C128.045 9.93029 128.687 10.1176 129.537 10.1176Z" fill="#2D2926"/>
<path d="M113.072 17.8926V3.58911H122.562V5.91852H115.722V9.382H121.573V11.5582H115.722V15.5427H122.633V17.8926H113.072Z" fill="#2D2926"/>
<path d="M97.8856 17.8926V3.58911H100.536V15.461H106.815V3.58911H109.465V17.8926H97.8856ZM109.241 21.5195V17.8926H107.916V15.461H111.749V21.5195H109.241Z" fill="#2D2926"/>
<path d="M82.9199 17.8926L88.3938 3.58911H91.3499L96.9356 17.8926H93.9489L92.736 14.6538H86.9973L85.8249 17.8926H82.9199ZM87.6497 12.3959H92.0633L89.8207 6.59283L87.6497 12.3959Z" fill="#2D2926"/>
<path d="M70.1808 17.8926V3.58911H72.8309V9.14701H79.3139V3.58911H81.9641V17.8926H79.3139V11.5786H72.8309V17.8926H70.1808Z" fill="#2D2926"/>
<path d="M55.2151 17.8926L60.6889 3.58911H63.645L69.2308 17.8926H66.2441L65.0312 14.6538H59.2925L58.1201 17.8926H55.2151ZM59.9449 12.3959H64.3585L62.1159 6.59283L59.9449 12.3959Z" fill="#2D2926"/>
<path d="M42.476 17.8926V3.58911H54.2593V17.8926H51.6091V6.02069H45.1261V17.8926H42.476Z" fill="#2D2926"/>
<path d="M31.926 10.9348V21.3696C28.1321 21.3696 24.5815 20.3547 21.5154 18.5758C18.3579 16.7435 15.72 14.1005 13.8929 10.9357C12.1172 7.86159 11.1056 4.30288 11.1056 0.5H21.5164C21.5164 6.26203 26.1774 10.9348 31.9271 10.9348H31.926Z" fill="#CE0037"/>
<path d="M20.8224 32.2217H10.4116C10.4116 26.4597 5.75056 21.787 0.000854492 21.787V11.3522C3.79497 11.3522 7.34549 12.367 10.4116 14.1459C13.5691 15.9772 16.207 18.6212 18.0341 21.786C19.8099 24.8583 20.8214 28.4179 20.8214 32.2209L20.8224 32.2217Z" fill="#CE0037"/>
</g>
<defs>
<clipPath id="clip0_144_548">
<rect width="196" height="32" fill="white" transform="translate(0 0.5)"/>
</clipPath>
</defs>
</svg>
