<svg width="22" height="19" viewBox="0 0 22 19" fill="none" xmlns="http://www.w3.org/2000/svg">
<path fill-rule="evenodd" clip-rule="evenodd" d="M1.51239 8.56319C7.41795 5.99021 11.3559 4.29394 13.3263 3.47439C18.9521 1.1344 20.1211 0.727921 20.883 0.714499C21.0506 0.711547 21.4253 0.753078 21.668 0.950025C21.873 1.11632 21.9294 1.34097 21.9563 1.49864C21.9833 1.6563 22.0169 2.01548 21.9902 2.29613C21.6854 5.49939 20.3662 13.2729 19.6951 16.8606C19.4111 18.3787 18.852 18.8877 18.3107 18.9375C17.1343 19.0458 16.2409 18.16 15.1015 17.4131C13.3186 16.2444 12.3113 15.5168 10.5807 14.3763C8.58058 13.0583 9.87715 12.3339 11.017 11.15C11.3153 10.8402 16.4986 6.12552 16.5989 5.69783C16.6115 5.64434 16.6231 5.44496 16.5046 5.33967C16.3862 5.23439 16.2114 5.27039 16.0852 5.29903C15.9064 5.33961 13.0581 7.22224 7.54035 10.9469C6.73187 11.5021 5.99958 11.7726 5.34347 11.7584C4.62016 11.7428 3.2288 11.3494 2.19447 11.0132C0.925826 10.6008 -0.0824703 10.3828 0.00532971 9.68241C0.0510613 9.31762 0.553413 8.94454 1.51239 8.56319Z" fill="#E3E4E5"/>
</svg>
