<svg width="22" height="24" viewBox="0 0 22 24" fill="none" xmlns="http://www.w3.org/2000/svg">
<path d="M13.5578 9.96103C13.4826 9.96103 13.4103 9.93213 13.3558 9.88029C13.3013 9.82845 13.2688 9.75766 13.265 9.68254C13.2153 8.68661 12.746 8.19891 11.7884 8.14739C11.7121 8.14132 11.6412 8.10568 11.5908 8.04807C11.5404 7.99046 11.5145 7.91544 11.5186 7.83901C11.5227 7.76258 11.5566 7.69079 11.6129 7.63895C11.6692 7.58711 11.7435 7.55933 11.8201 7.56152C13.0837 7.63114 13.7862 8.35277 13.8509 9.6533C13.8528 9.69179 13.8472 9.73028 13.8342 9.76658C13.8212 9.80288 13.8013 9.83627 13.7754 9.86484C13.7495 9.89342 13.7183 9.91662 13.6835 9.93312C13.6487 9.94963 13.6109 9.95911 13.5724 9.96103H13.5578Z" fill="#E3E4E5"/>
<path d="M15.0567 10.4658H15.0637C15.1405 10.4656 15.2141 10.4354 15.2689 10.3816C15.3237 10.3278 15.3552 10.2547 15.3568 10.1779C15.3825 9.03228 15.032 8.05688 14.3271 7.28583C13.6222 6.51477 12.6307 6.0772 11.38 5.98564C11.3023 5.97997 11.2254 6.0054 11.1665 6.05636C11.1075 6.10731 11.0712 6.17961 11.0655 6.25734C11.0598 6.33508 11.0852 6.41189 11.1362 6.47087C11.1871 6.52985 11.2594 6.56618 11.3372 6.57186C12.4487 6.65331 13.2824 7.01535 13.8944 7.68302C14.5063 8.35069 14.7928 9.16282 14.7702 10.1657C14.7684 10.2435 14.7976 10.3188 14.8513 10.3751C14.9051 10.4313 14.9789 10.464 15.0567 10.4658Z" fill="#E3E4E5"/>
<path d="M16.6047 11.068C16.5273 11.0679 16.453 11.0373 16.3981 10.9827C16.3431 10.9281 16.3119 10.8541 16.3113 10.7766C16.2977 8.98284 15.7811 7.61269 14.7319 6.58856C13.6953 5.57905 12.3857 5.06106 10.839 5.04992C10.8005 5.04979 10.7624 5.04206 10.7268 5.02719C10.6913 5.01231 10.659 4.99058 10.6318 4.96323C10.577 4.90801 10.5464 4.83325 10.5466 4.75542C10.5469 4.6776 10.5781 4.60306 10.6333 4.54823C10.6886 4.49339 10.7633 4.46274 10.8411 4.46301H10.8436C12.5465 4.47555 13.9925 5.04923 15.1417 6.16874C16.2908 7.28825 16.8832 8.84012 16.8986 10.7732C16.8991 10.8509 16.8688 10.9257 16.8142 10.9812C16.7596 11.0366 16.6853 11.0681 16.6075 11.0687L16.6047 11.068Z" fill="#E3E4E5"/>
<path d="M12.4968 13.3593C12.2747 13.6329 11.8622 13.5981 11.8622 13.5981C8.8472 12.8284 8.04029 9.77444 8.04029 9.77444C8.04029 9.77444 8.00409 9.36193 8.27909 9.13984L8.82388 8.7068C9.09401 8.49863 9.26632 7.99352 8.99132 7.50026C8.78039 7.12999 8.55104 6.77053 8.30416 6.42321C8.06431 6.09564 7.5056 5.42484 7.50351 5.42275C7.23407 5.10493 6.83793 5.03113 6.4202 5.2487C6.41893 5.2487 6.4172 5.24926 6.41553 5.2498C6.41399 5.2503 6.4125 5.25078 6.41149 5.25078C5.99602 5.49017 5.6214 5.79429 5.30173 6.15169C5.30064 6.15387 5.29955 6.15491 5.29846 6.15595C5.29746 6.15691 5.29646 6.15786 5.29546 6.15969C5.0374 6.47113 4.88968 6.77642 4.85232 7.07556C4.84456 7.11967 4.84188 7.16452 4.84432 7.20924C4.84293 7.34133 4.86303 7.47278 4.90384 7.59842L4.91811 7.60817C5.04831 8.07046 5.37413 8.84047 6.08218 10.1243C6.48718 10.8669 6.95426 11.5738 7.47844 12.2376C7.74107 12.5704 8.02257 12.8878 8.32156 13.1883C8.32516 13.1919 8.32872 13.1955 8.33227 13.1991C8.33936 13.2063 8.3464 13.2134 8.35359 13.2204L8.44966 13.3164C8.75017 13.6154 9.06758 13.8969 9.40035 14.1596C10.0642 14.6838 10.7713 15.1509 11.5141 15.5558C12.7975 16.2639 13.5682 16.5897 14.0298 16.7199L14.0396 16.7342C14.1652 16.7751 14.2966 16.7953 14.4288 16.794C14.4735 16.7962 14.5183 16.7934 14.5624 16.7857C14.862 16.7502 15.1671 16.6027 15.4776 16.3432C15.4794 16.3422 15.4804 16.3412 15.4813 16.3402C15.4824 16.3391 15.4834 16.3381 15.4856 16.337C15.843 16.0172 16.1472 15.6426 16.3869 15.2272C16.3869 15.2262 16.3873 15.2247 16.3877 15.2232C16.3881 15.2215 16.3886 15.2198 16.3886 15.2185C16.6062 14.8008 16.5324 14.4046 16.2128 14.1348C16.2124 14.1348 16.1863 14.1134 16.1422 14.077C15.9611 13.9278 15.4758 13.5279 15.2123 13.3342C14.8654 13.0873 14.5063 12.858 14.1363 12.647C13.6427 12.372 13.1387 12.5443 12.9298 12.8145L12.4968 13.3593Z" fill="#E3E4E5"/>
<path fill-rule="evenodd" clip-rule="evenodd" d="M19.5167 2.57416C18.9402 2.04226 16.6107 0.351149 11.4218 0.328174C11.4218 0.328174 5.30276 -0.0408199 2.31983 2.6953C0.659358 4.35613 0.0752334 6.78626 0.0136183 9.79913C-0.0479967 12.812 -0.127714 18.4583 5.31495 19.9893H5.32017L5.31669 22.3254C5.31669 22.3254 5.28188 23.2712 5.90464 23.4641C6.53332 23.6593 6.94524 23.1909 7.48237 22.5802C7.58885 22.4591 7.70025 22.3325 7.81923 22.2043C8.21399 21.7789 8.75912 21.154 9.16989 20.6764C12.8922 20.9897 15.755 20.2737 16.0802 20.1679C16.1473 20.1461 16.2423 20.1219 16.3602 20.092C17.5628 19.7862 21.1463 18.875 21.7763 13.7334C22.4902 7.91413 21.4309 4.23324 19.5167 2.57416ZM20.1475 13.3161C19.6218 17.5607 16.7729 18.2236 15.7464 18.4624C15.6329 18.4888 15.5416 18.5101 15.4783 18.5304C15.2078 18.6174 12.6934 19.2429 9.53157 19.0365C9.53157 19.0365 7.17558 21.8788 6.43968 22.6178C6.32481 22.7334 6.18974 22.7801 6.09958 22.7571C5.97287 22.7261 5.93806 22.5761 5.93945 22.3568C5.94154 22.0435 5.95964 18.4747 5.95964 18.4747C1.50771 17.2387 1.61155 12.7045 1.67048 10.1311C1.67249 10.0431 1.67445 9.95748 1.67618 9.87432C1.7284 7.35786 2.20113 5.29636 3.60539 3.90985C6.12847 1.62453 11.3261 1.96602 11.3261 1.96602C15.7154 1.98517 17.8186 3.30693 18.3063 3.74972C19.9257 5.13623 20.7507 8.45405 20.1475 13.3147V13.3161Z" fill="#E3E4E5"/>
</svg>
